<svg viewBox="0 0 100 100" xmlns="http://www.w3.org/2000/svg">
    <defs> 
        <linearGradient id="sw-gradient" x1="0" x2="1" y1="1" y2="0">
            <stop id="stop1" stop-color="rgba(255, 243, 240, 1)" offset="0%"></stop>
            <stop id="stop2" stop-color="rgba(255, 247, 240, 1)" offset="100%"></stop>
        </linearGradient>
    </defs>
<path fill="url(#sw-gradient)" d="M26.1,-32C31.3,-26.8,31.2,-16.1,32.4,-6.2C33.5,3.8,36,13,32.7,19C29.4,24.9,20.2,27.6,11.5,30.1C2.8,32.5,-5.3,34.8,-13.8,33.6C-22.3,32.4,-31.2,27.8,-34.4,20.6C-37.6,13.5,-35.2,3.9,-32.1,-4.3C-29,-12.4,-25.3,-19,-19.8,-24.2C-14.3,-29.4,-7.2,-33.3,1.6,-35.2C10.5,-37.2,20.9,-37.3,26.1,-32Z" width="100%" height="100%" transform="translate(50 50)" style="transition: 0.3s;" stroke-width="0"></path>
</svg>