<svg viewBox="0 0 100 100" xmlns="http://www.w3.org/2000/svg">
    <defs> 
        <linearGradient id="sw-gradient" x1="0" x2="1" y1="1" y2="0">
            <stop id="stop1" stop-color="rgba(255, 243, 240, 1)" offset="0%"></stop>
            <stop id="stop2" stop-color="rgba(255, 247, 240, 1)" offset="100%"></stop>
        </linearGradient>
    </defs>
<path fill="url(#sw-gradient)" d="M18.8,-27.3C24.4,-21.8,29.1,-16.4,33,-9.5C36.8,-2.7,39.8,5.6,37.3,11.7C34.7,17.7,26.5,21.4,19.3,26.9C12.2,32.3,6.1,39.5,-1.4,41.4C-8.9,43.4,-17.8,40.1,-24.5,34.5C-31.1,28.9,-35.5,20.9,-35.8,13.3C-36,5.6,-32.1,-1.8,-29,-8.8C-25.8,-15.8,-23.4,-22.4,-18.7,-28.1C-14,-33.9,-7,-38.8,-0.2,-38.5C6.6,-38.2,13.2,-32.7,18.8,-27.3Z" width="100%" height="100%" transform="translate(50 50)" style="transition: 0.3s;" stroke-width="0"></path>
</svg>