<svg viewBox="0 0 100 100" xmlns="http://www.w3.org/2000/svg">
    <defs> 
        <linearGradient id="sw-gradient" x1="0" x2="1" y1="1" y2="0">
            <stop id="stop1" stop-color="rgba(255, 243, 240, 1)" offset="0%"></stop>
            <stop id="stop2" stop-color="rgba(255, 247, 240, 1)" offset="100%"></stop>
        </linearGradient>
    </defs>
<path fill="url(#sw-gradient)" d="M16.8,-25.6C22,-19.5,26.4,-14.7,28.2,-9.2C30,-3.6,29.2,2.8,27,8.5C24.7,14.1,21,18.9,16.2,24.5C11.5,30.1,5.8,36.5,-0.5,37.2C-6.8,37.9,-13.5,32.9,-20.4,28C-27.3,23.1,-34.3,18.3,-36.6,11.7C-38.9,5.2,-36.6,-2.9,-34.1,-11.2C-31.6,-19.5,-29,-27.9,-23.3,-33.8C-17.6,-39.8,-8.8,-43.4,-1.5,-41.3C5.9,-39.3,11.7,-31.7,16.8,-25.6Z" width="100%" height="100%" transform="translate(50 50)" style="transition: 0.3s;" stroke-width="0"></path>
</svg>