<svg viewBox="0 0 100 100" xmlns="http://www.w3.org/2000/svg">
    <defs> 
        <linearGradient id="sw-gradient" x1="0" x2="1" y1="1" y2="0">
            <stop id="stop1" stop-color="rgba(255, 243, 240, 1)" offset="0%"></stop>
            <stop id="stop2" stop-color="rgba(255, 247, 240, 1)" offset="100%"></stop>
        </linearGradient>
    </defs>
<path fill="url(#sw-gradient)" d="M24,-26.8C32,-22,39.9,-15.2,41.5,-7.1C43.1,0.9,38.5,10.2,32.7,17.5C26.8,24.7,19.8,29.9,11.4,34.1C3,38.4,-6.7,41.7,-15.3,39.6C-23.8,37.5,-31.3,29.9,-34,21.4C-36.8,13,-34.9,3.6,-33.6,-6.3C-32.4,-16.3,-31.8,-26.7,-26.3,-32C-20.8,-37.3,-10.4,-37.5,-1.2,-36.1C8,-34.7,16.1,-31.7,24,-26.8Z" width="100%" height="100%" transform="translate(50 50)" style="transition: 0.3s;" stroke-width="0"></path>
</svg>