<!--?xml version="1.0" standalone="no"?-->
              <svg id="sw-js-blob-svg" viewBox="0 0 100 100" xmlns="http://www.w3.org/2000/svg" version="1.1">
                    <defs> 
                        <linearGradient id="sw-gradient" x1="0" x2="1" y1="1" y2="0">
                            <stop id="stop1" stop-color="rgba(255, 243, 240, 1)" offset="0%"></stop>
                            <stop id="stop2" stop-color="rgba(255, 247, 240, 1)" offset="100%"></stop>
                        </linearGradient>
                    </defs>
                <path fill="url(#sw-gradient)" d="M23.6,-32.7C30.6,-27.5,36.1,-20.5,39.2,-12.4C42.4,-4.3,43.1,5,40.4,13.1C37.8,21.3,31.7,28.3,24.4,34.1C17.1,40,8.6,44.6,-0.1,44.8C-8.8,44.9,-17.6,40.6,-24.2,34.6C-30.8,28.5,-35.3,20.7,-38.5,12.2C-41.8,3.7,-43.7,-5.6,-41.9,-14.4C-40.2,-23.2,-34.6,-31.6,-27,-36.7C-19.4,-41.7,-9.7,-43.3,-0.7,-42.4C8.3,-41.5,16.7,-38,23.6,-32.7Z" width="100%" height="100%" transform="translate(50 50)" style="transition: 0.3s;" stroke-width="0"></path>
              </svg>